HIERARCHY
ROOT Hips
{
	OFFSET 0.00 0.00 0.00
	CHANNELS 6 Xposition Yposition Zposition Yrotation Xrotation Zrotation
	JOINT Spine
	{
		OFFSET	0.0000	9.2263	1.5771
		CHANNELS 3 Xrotation Yrotation Zrotation
		JOINT Spine1
		{
			OFFSET	0.0000	16.2540	-0.1656
			CHANNELS 3 Xrotation Yrotation Zrotation
			JOINT Spine2
			{
				OFFSET	0.0000	13.6396	-1.2923
				CHANNELS 3 Xrotation Yrotation Zrotation
				JOINT Neck
				{
					OFFSET	0.0000	13.8774	-4.3542
					CHANNELS 3 Xrotation Yrotation Zrotation
					JOINT Neck1
					{
						OFFSET	0.0000	4.3400	0.9269
						CHANNELS 3 Xrotation Yrotation Zrotation
						JOINT Head
						{
							OFFSET	0.0000	4.0266	0.8585
							CHANNELS 3 Xrotation Yrotation Zrotation
							End Site
							{
								OFFSET 0.0000 23.0297 0.1231
							}
						}
					}
				}
				JOINT LeftShoulder
				{
					OFFSET	6.1442	10.1870	-3.7932
					CHANNELS 3 Zrotation Xrotation Yrotation
					JOINT LeftArm
					{
						OFFSET	12.3191	-1.1130	-1.7935
						CHANNELS 3 Zrotation Xrotation Yrotation
						JOINT LeftForeArm
						{
							OFFSET	27.6870	0.0000	0.0000
							CHANNELS 3 Xrotation Zrotation Yrotation
							JOINT LeftHand
							{
								OFFSET	27.8738	0.0000	0.0000
								CHANNELS 3 Zrotation Yrotation Xrotation
								JOINT LeftHandThumb1
								{
									OFFSET	2.3785	-1.0029	2.6209
									CHANNELS 3 Zrotation Xrotation Yrotation
									JOINT LeftHandThumb2
									{
										OFFSET	3.3624	-1.0029	2.8398
										CHANNELS 3 Zrotation Xrotation Yrotation
										JOINT LeftHandThumb3
										{
											OFFSET	4.5018	-1.3445	2.1783
											CHANNELS 3 Zrotation Xrotation Yrotation
											End Site
											{
												OFFSET 2.6000 -1.0000 1.0000
											}
										}
									}
								}
								JOINT LeftHandMiddle1
								{
									OFFSET	10.4639	0.6148	0.4298
									CHANNELS 3 Zrotation Xrotation Yrotation
									JOINT LeftHandMiddle2
									{
										OFFSET	5.7921	0.0000	0.0000
										CHANNELS 3 Zrotation Xrotation Yrotation
										JOINT LeftHandMiddle3
										{
											OFFSET	3.7132	0.0000	0.0000
											CHANNELS 3 Zrotation Xrotation Yrotation
											End Site
											{
												OFFSET 2.3000 0.0000 0.0000
											}
										}
									}
								}
								JOINT LeftHandIndex1
								{
									OFFSET	10.3945	0.6148	2.7055
									CHANNELS 3 Zrotation Xrotation Yrotation
									JOINT LeftHandIndex2
									{
										OFFSET	5.5493	0.0000	0.0000
										CHANNELS 3 Zrotation Xrotation Yrotation
										JOINT LeftHandIndex3
										{
											OFFSET	3.3911	0.0000	0.0000
											CHANNELS 3 Zrotation Xrotation Yrotation
											End Site
											{
												OFFSET 2.5000 0.0000 0.0000
											}
										}
									}
								}
								JOINT LeftHandRing1
								{
									OFFSET	10.3252	0.3211	-1.8755
									CHANNELS 3 Zrotation Xrotation Yrotation
									JOINT LeftHandRing2
									{
										OFFSET	5.4452	0.0000	0.0000
										CHANNELS 3 Zrotation Xrotation Yrotation
										JOINT LeftHandRing3
										{
											OFFSET	3.7132	0.0000	0.0000
											CHANNELS 3 Zrotation Xrotation Yrotation
											End Site
											{
												OFFSET 2.0000 0.0000 0.0000
											}
										}
									}
								}
								JOINT LeftHandPinky1
								{
									OFFSET	10.0130	-0.0783	-3.9671
									CHANNELS 3 Zrotation Xrotation Yrotation
									JOINT LeftHandPinky2
									{
										OFFSET	3.6763	0.0000	0.0000
										CHANNELS 3 Zrotation Xrotation Yrotation
										JOINT LeftHandPinky3
										{
											OFFSET	2.8113	0.0000	0.0000
											CHANNELS 3 Zrotation Xrotation Yrotation
											End Site
											{
												OFFSET 2.9000 0.0000 0.0000
											}
										}
									}
								}
							}
						}
					}
				}
				JOINT RightShoulder
				{
					OFFSET	-6.1402	10.1870	-3.7932
					CHANNELS 3 Zrotation Xrotation Yrotation
					JOINT RightArm
					{
						OFFSET	-12.3231	-1.1130	-1.7935
						CHANNELS 3 Zrotation Xrotation Yrotation
						JOINT RightForeArm
						{
							OFFSET	-27.6870	0.0000	0.0000
							CHANNELS 3 Xrotation Zrotation Yrotation
							JOINT RightHand
							{
								OFFSET	-27.8738	0.0000	0.0000
								CHANNELS 3 Zrotation Yrotation Xrotation
								JOINT RightHandThumb1
								{
									OFFSET	-2.5178	-0.9367	2.5137
									CHANNELS 3 Zrotation Xrotation Yrotation
									JOINT RightHandThumb2
									{
										OFFSET	-3.2638	-1.0870	2.9669
										CHANNELS 3 Zrotation Xrotation Yrotation
										JOINT RightHandThumb3
										{
											OFFSET	-4.4165	-1.3703	2.1350
											CHANNELS 3 Zrotation Xrotation Yrotation
											End Site
											{
												OFFSET -2.6000 -1.0000 1.0000
											}
										}
									}
								}
								JOINT RightHandIndex1
								{
									OFFSET	-10.4665	0.4896	2.7120
									CHANNELS 3 Zrotation Xrotation Yrotation
									JOINT RightHandIndex2
									{
										OFFSET	-5.3768	0.0000	0.0000
										CHANNELS 3 Zrotation Xrotation Yrotation
										JOINT RightHandIndex3
										{
											OFFSET	-3.3855	0.0000	0.0000
											CHANNELS 3 Zrotation Xrotation Yrotation
											End Site
											{
												OFFSET -2.6000 0.0000 0.0000
											}
										}
									}
								}
								JOINT RightHandMiddle1
								{
									OFFSET	-10.7596	0.4896	0.4278
									CHANNELS 3 Zrotation Xrotation Yrotation
									JOINT RightHandMiddle2
									{
										OFFSET	-5.6168	0.0000	0.0000
										CHANNELS 3 Zrotation Xrotation Yrotation
										JOINT RightHandMiddle3
										{
											OFFSET	-3.7364	0.0000	0.0000
											CHANNELS 3 Zrotation Xrotation Yrotation
											End Site
											{
												OFFSET -2.3000 0.0000 0.0000
											}
										}
									}
								}
								JOINT RightHandRing1
								{
									OFFSET	-10.4702	0.3879	-1.9363
									CHANNELS 3 Zrotation Xrotation Yrotation
									JOINT RightHandRing2
									{
										OFFSET	-5.4013	0.0000	0.0000
										CHANNELS 3 Zrotation Xrotation Yrotation
										JOINT RightHandRing3
										{
											OFFSET	-3.3916	0.0000	0.0000
											CHANNELS 3 Zrotation Xrotation Yrotation
											End Site
											{
												OFFSET -2.2000 0.0000 0.0000
											}
										}
									}
								}
								JOINT RightHandPinky1
								{
									OFFSET	-9.9715	-0.1191	-3.9540
									CHANNELS 3 Zrotation Xrotation Yrotation
									JOINT RightHandPinky2
									{
										OFFSET	-3.6528	0.0000	0.0000
										CHANNELS 3 Zrotation Xrotation Yrotation
										JOINT RightHandPinky3
										{
											OFFSET	-2.7820	0.0000	0.0000
											CHANNELS 3 Zrotation Xrotation Yrotation
											End Site
											{
												OFFSET -2.9000 0.0000 0.0000
											}
										}
									}
								}
							}
						}
					}
				}
			}
		}
	}
	JOINT LeftUpLeg
	{
		OFFSET	9.6338	-3.2733	0.0000
		CHANNELS 3 Xrotation Yrotation Zrotation
		JOINT LeftLeg
		{
			OFFSET	0.0000	-41.7300	-1.7300
			CHANNELS 3 Xrotation Yrotation Zrotation
			JOINT LeftFoot
			{
				OFFSET	0.0126	-39.1900	-0.8477
				CHANNELS 3 Xrotation Yrotation Zrotation
				JOINT LeftToeBase
				{
					OFFSET	-0.1833	-12.1931	8.2823
					CHANNELS 3 Xrotation Yrotation Zrotation
					End Site
					{
						OFFSET 0.0000 0.0000 10.1681
					}
				}
			}
		}
	}
	JOINT RightUpLeg
	{
		OFFSET	-9.6338	-3.2733	0.0000
		CHANNELS 3 Xrotation Yrotation Zrotation
		JOINT RightLeg
		{
			OFFSET	0.0000	-41.7300	-1.7300
			CHANNELS 3 Xrotation Yrotation Zrotation
			JOINT RightFoot
			{
				OFFSET	0.0126	-39.1900	-0.8477
				CHANNELS 3 Xrotation Yrotation Zrotation
				JOINT RightToeBase
				{
					OFFSET	-0.1833	-12.1931	8.2823
					CHANNELS 3 Xrotation Yrotation Zrotation
					End Site
					{
						OFFSET 0.0032 0.0000 10.1681
					}
				}
			}
		}
	}
}
MOTION
Frames: 4
Frame Time: 0.0333333
-37.3623 93.7652 124.2012 -49.4871 -5.1254 2.7001 16.0603 1.1605 1.0467 -3.1715 -0.3462 1.2161 -3.1994 -0.1475 1.1977 5.7910 -9.5238 1.5388 -0.0000 0.0000 -0.0000 -7.5853 -9.2256 0.1052 -8.5253 0.9918 16.4411 -67.1168 -13.7451 -0.9334 21.3311 -11.8057 -10.1827 8.7020 -8.2701 19.7838 -1.4465 4.2008 17.6862 -2.1891 2.6724 4.1131 7.9203 -3.2195 1.2244 -10.4329 -1.4135 -0.4364 -30.3930 0.6661 -2.3139 -12.8567 0.1413 -1.3109 -4.3996 1.5159 -3.6461 -15.4377 0.1610 -1.3326 -12.6313 0.1443 -1.1272 -9.2770 -4.2325 6.8177 -35.0066 0.8992 -3.1180 -20.8702 0.3380 -1.3539 -18.4017 -7.1299 9.3566 -31.6957 0.8437 -2.9065 -22.9550 0.4602 -2.1556 -1.2692 2.7830 10.4674 69.2054 29.1461 9.9783 0.8859 2.1479 23.9690 -5.8171 -1.9203 -16.4514 0.5910 5.7417 -16.7272 2.8940 1.3454 2.9496 -7.7227 -1.7078 -5.1576 7.6804 2.0395 -1.5915 21.9998 0.2800 1.4930 17.3549 0.2013 1.2019 13.5187 -3.3030 -2.2196 31.1486 0.4275 1.6954 13.9477 0.1308 1.1054 10.1912 -7.6889 -6.8329 37.5148 0.7293 2.5694 17.9630 0.0890 0.6344 23.9603 -10.7947 -4.6779 38.7131 0.9323 2.6756 16.9705 0.2009 1.2372 -27.5934 6.4560 7.2811 55.3788 11.4696 1.0498 -10.0485 0.8318 -0.0297 1.9872 -6.1562 1.8920 -3.0434 -10.5018 8.2699 22.7905 21.5353 1.0162 -3.5557 17.7024 -31.4169 -2.0371 -11.7617 5.7330 
-39.6290 93.8044 126.8510 -51.9090 -4.5613 2.8210 15.3170 1.3555 1.4519 -2.8844 -0.0608 0.7944 -2.9025 0.0875 0.7569 4.8124 -9.9678 1.2755 -0.0000 0.0000 -0.0000 -6.6654 -9.6683 0.2428 -7.6159 1.0561 16.3230 -67.5623 -14.0096 0.7986 21.0962 -12.2860 -9.1841 8.9397 -8.4813 19.4546 -0.9714 4.0480 18.2291 -2.1843 2.5902 3.9038 8.0290 -2.7995 2.3732 -11.6561 -1.4166 -0.6037 -30.9625 0.6958 -2.3683 -13.7786 0.1631 -1.4017 -5.1430 1.7060 -3.7513 -16.7077 0.1969 -1.4569 -13.7041 0.1694 -1.2325 -10.2864 -4.4004 6.4316 -35.7344 0.9408 -3.1788 -21.1184 0.3474 -1.3841 -19.6139 -7.2906 8.5763 -32.9282 0.9088 -3.0117 -22.5856 0.4454 -2.1253 -0.7497 2.8676 9.6888 68.5222 29.7397 10.7801 1.4096 1.7648 24.9277 -6.4021 -1.6572 -15.2863 0.6445 5.7002 -16.7777 2.8945 1.3443 2.9499 -7.7227 -1.7072 -5.1575 7.1041 2.0578 -1.5428 21.2350 0.2568 1.4356 16.6477 0.1846 1.1483 12.9054 -3.2193 -2.2105 30.2866 0.4025 1.6404 13.3035 0.1177 1.0557 9.6896 -7.5009 -6.7892 36.6061 0.6910 2.5108 17.3015 0.0833 0.5912 23.3380 -10.5917 -4.6660 37.8252 0.8912 2.6206 16.3574 0.1867 1.1906 -28.6549 5.1106 6.0383 46.4158 3.7475 0.7369 -8.0690 1.9858 -6.2327 3.9429 -6.5789 4.2349 -0.6232 -9.8359 7.6694 21.8478 22.6830 1.0582 -5.0620 19.0609 -31.6365 -2.0380 -11.7618 5.7330 
-41.9386 93.7843 129.3873 -53.5978 -4.4058 2.9095 15.1857 1.3858 1.6069 -2.6432 0.0396 0.6113 -2.6568 0.1638 0.5683 4.4742 -9.8886 1.1450 -0.0000 0.0000 -0.0000 -7.0763 -9.6831 0.3315 -7.2229 1.0651 16.4508 -67.9530 -14.1743 0.3206 21.3216 -13.3415 -5.9574 9.9526 -9.5065 19.0238 -0.5028 3.9039 18.7641 -2.1787 2.5116 3.7055 8.1277 -2.3879 3.4877 -12.8590 -1.4144 -0.7611 -31.5263 0.7254 -2.4210 -14.6866 0.1860 -1.4910 -5.8880 1.8948 -3.8471 -17.9543 0.2348 -1.5782 -14.7607 0.1959 -1.3358 -11.2863 -4.5570 6.0560 -36.4493 0.9824 -3.2378 -21.3736 0.3574 -1.4149 -20.8134 -7.4390 7.8174 -34.1311 0.9746 -3.1132 -22.2440 0.4316 -2.0967 -0.5939 2.9035 9.2677 68.3674 28.4424 11.3475 2.5074 1.1029 25.6096 -5.2599 -1.5985 -13.8315 0.7079 5.6588 -16.8667 2.8954 1.3425 2.9502 -7.7218 -1.7061 -5.1571 6.6217 2.0762 -1.4749 20.5283 0.2365 1.3838 16.0095 0.1699 1.1000 12.3789 -3.1236 -2.1727 29.4643 0.3800 1.5895 12.7403 0.1069 1.0122 9.2959 -7.2942 -6.6956 35.7282 0.6550 2.4540 16.7178 0.0796 0.5557 22.8032 -10.3589 -4.6008 36.9720 0.8525 2.5676 15.8313 0.1747 1.1507 -28.7483 5.4244 4.1261 36.1942 -1.8405 0.4933 -5.6691 2.2495 -7.8309 3.2881 -8.1423 5.7864 2.5381 -9.1682 7.1363 19.9861 23.7161 1.1000 -6.3325 19.7607 -31.7005 -2.0381 -11.7621 5.7330 
-44.2995 93.6124 131.8218 -54.9227 -4.1589 2.7026 15.3356 1.4018 2.1570 -2.7640 0.1177 0.2553 -2.7689 0.2061 0.2042 4.7380 -9.9419 1.6231 -0.0000 0.0000 -0.0000 -7.9598 -9.6951 0.3261 -6.8004 1.0977 16.3761 -68.0597 -14.4625 1.3899 21.7461 -13.0630 -5.8918 10.7419 -9.2330 18.7141 -0.0471 3.7697 19.2852 -2.1724 2.4388 3.5228 8.2166 -1.9900 4.5542 -14.0268 -1.4060 -0.9037 -32.0802 0.7546 -2.4712 -15.5696 0.2096 -1.5775 -6.6262 2.0801 -3.9305 -19.1635 0.2741 -1.6948 -15.7892 0.2236 -1.4358 -12.2625 -4.7012 5.6986 -37.1458 1.0237 -3.2947 -21.6336 0.3677 -1.4458 -21.9827 -7.5749 7.0924 -35.2911 1.0401 -3.2095 -21.9349 0.4193 -2.0705 -0.1849 2.9557 8.7492 68.6507 27.4351 11.0872 2.3579 1.1081 26.2486 -6.1117 -1.4648 -12.9100 0.7809 5.6177 -16.9957 2.8970 1.3397 2.9504 -7.7208 -1.7049 -5.1568 6.2471 2.0941 -1.3873 19.8946 0.2188 1.3384 15.4551 0.1578 1.0588 11.9533 -3.0166 -2.1045 28.6968 0.3605 1.5446 12.2725 0.0982 0.9760 9.0229 -7.0709 -6.5501 34.8966 0.6220 2.4000 16.2262 0.0778 0.5296 22.3694 -10.0975 -4.4797 36.1688 0.8170 2.5177 15.4064 0.1652 1.1187 -28.1422 6.1532 2.3588 25.7527 -6.0162 0.2588 -4.6038 2.6014 -10.5200 3.4989 -6.7870 4.5758 6.0239 -7.9805 7.4426 16.8806 24.8361 1.2837 -7.3955 16.6280 -31.5563 -1.6873 -11.4213 5.6231 
